<?xml version="1.0" encoding="UTF-8" standalone="no"?>
<!DOCTYPE svg PUBLIC "-//W3C//DTD SVG 1.1//EN"
 "http://www.w3.org/Graphics/SVG/1.1/DTD/svg11.dtd">
<!-- Generated by graphviz version 13.1.2 (20250808.2320)
 -->
<!-- Title: FathomInventoryComprehensive Pages: 1 -->
<svg width="1023pt" height="229pt"
 viewBox="0.00 0.00 1023.00 229.00" xmlns="http://www.w3.org/2000/svg" xmlns:xlink="http://www.w3.org/1999/xlink">
<g id="graph0" class="graph" transform="scale(1 1) rotate(0) translate(4 225)">
<title>FathomInventoryComprehensive</title>
<polygon fill="white" stroke="none" points="-4,4 -4,-225 1019.38,-225 1019.38,4 -4,4"/>
<!-- db -->
<g id="node1" class="node">
<title>db</title>
<path fill="lightblue" stroke="black" d="M163.25,-40C163.25,-42.21 138.49,-44 108,-44 77.51,-44 52.75,-42.21 52.75,-40 52.75,-40 52.75,-4 52.75,-4 52.75,-1.79 77.51,0 108,0 138.49,0 163.25,-1.79 163.25,-4 163.25,-4 163.25,-40 163.25,-40"/>
<path fill="none" stroke="black" d="M163.25,-40C163.25,-37.79 138.49,-36 108,-36 77.51,-36 52.75,-37.79 52.75,-40"/>
<text xml:space="preserve" text-anchor="middle" x="108" y="-23.55" font-family="Helvetica,sans-Serif" font-weight="bold" font-size="11.00">fathom_emails.db</text>
<text xml:space="preserve" text-anchor="middle" x="108" y="-11.55" font-family="Helvetica,sans-Serif" font-weight="bold" font-size="11.00">(SQLite Database)</text>
</g>
<!-- converter -->
<g id="node2" class="node">
<title>converter</title>
<polygon fill="lightgrey" stroke="black" points="305,-40 302,-44 281,-44 278,-40 181,-40 181,-4 305,-4 305,-40"/>
<text xml:space="preserve" text-anchor="middle" x="243" y="-18.12" font-family="Helvetica,sans-Serif" font-weight="bold" font-size="10.00">fathom_email_2_md.py</text>
</g>
<!-- parser -->
<g id="node3" class="node">
<title>parser</title>
<polygon fill="lightgrey" stroke="black" points="76,-132.5 73,-136.5 52,-136.5 49,-132.5 0,-132.5 0,-96.5 76,-96.5 76,-132.5"/>
<text xml:space="preserve" text-anchor="middle" x="38" y="-110.62" font-family="Helvetica,sans-Serif" font-weight="bold" font-size="10.00">parse_md.py</text>
</g>
<!-- parser&#45;&gt;db -->
<g id="edge15" class="edge">
<title>parser&#45;&gt;db</title>
<path fill="none" stroke="red" stroke-dasharray="5,2" d="M42.84,-96.15C46.34,-85.6 51.82,-72.22 59.5,-62 62.13,-58.5 65.14,-55.14 68.34,-51.95"/>
<polygon fill="red" stroke="red" points="70.45,-54.76 75.48,-45.44 65.73,-49.59 70.45,-54.76"/>
<text xml:space="preserve" text-anchor="middle" x="91.75" y="-65.2" font-family="Times,serif" font-size="14.00">parses from</text>
</g>
<!-- cookies -->
<g id="node4" class="node">
<title>cookies</title>
<polygon fill="lightcyan" stroke="black" points="762.46,-22 740.23,-40 695.77,-40 673.54,-22 695.77,-4 740.23,-4 762.46,-22"/>
<text xml:space="preserve" text-anchor="middle" x="718" y="-18.32" font-family="Helvetica,sans-Serif" font-size="9.00">cookies.json</text>
</g>
<!-- credentials -->
<g id="node5" class="node">
<title>credentials</title>
<polygon fill="lightcyan" stroke="black" points="429.42,-22 402.71,-40 349.29,-40 322.58,-22 349.29,-4 402.71,-4 429.42,-22"/>
<text xml:space="preserve" text-anchor="middle" x="376" y="-18.32" font-family="Helvetica,sans-Serif" font-size="9.00">credentials.json</text>
</g>
<!-- token -->
<g id="node6" class="node">
<title>token</title>
<polygon fill="lightcyan" stroke="black" points="524.49,-22 505.25,-40 466.75,-40 447.51,-22 466.75,-4 505.25,-4 524.49,-22"/>
<text xml:space="preserve" text-anchor="middle" x="486" y="-18.32" font-family="Helvetica,sans-Serif" font-size="9.00">token.json</text>
</g>
<!-- all_calls -->
<g id="node7" class="node">
<title>all_calls</title>
<polygon fill="lightyellow" stroke="black" points="639.5,-40 542.5,-40 542.5,-4 645.5,-4 645.5,-34 639.5,-40"/>
<polyline fill="none" stroke="black" points="639.5,-40 639.5,-34"/>
<polyline fill="none" stroke="black" points="645.5,-34 639.5,-34"/>
<text xml:space="preserve" text-anchor="middle" x="594" y="-18.12" font-family="Helvetica,sans-Serif" font-size="10.00">all_fathom_calls.tsv</text>
</g>
<!-- era_connections -->
<g id="node8" class="node">
<title>era_connections</title>
<polygon fill="lightyellow" stroke="black" points="890.88,-132.5 793.12,-132.5 793.12,-96.5 896.88,-96.5 896.88,-126.5 890.88,-132.5"/>
<polyline fill="none" stroke="black" points="890.88,-132.5 890.88,-126.5"/>
<polyline fill="none" stroke="black" points="896.88,-126.5 890.88,-126.5"/>
<text xml:space="preserve" text-anchor="middle" x="845" y="-110.62" font-family="Helvetica,sans-Serif" font-size="10.00">era_connections.tsv</text>
</g>
<!-- analysis_results -->
<g id="node9" class="node">
<title>analysis_results</title>
<polygon fill="lightyellow" stroke="black" points="1009.38,-132.5 914.62,-132.5 914.62,-96.5 1015.38,-96.5 1015.38,-126.5 1009.38,-132.5"/>
<polyline fill="none" stroke="black" points="1009.38,-132.5 1009.38,-126.5"/>
<polyline fill="none" stroke="black" points="1015.38,-126.5 1009.38,-126.5"/>
<text xml:space="preserve" text-anchor="middle" x="965" y="-110.62" font-family="Helvetica,sans-Serif" font-size="10.00">analysis_results.txt</text>
</g>
<!-- download -->
<g id="node10" class="node">
<title>download</title>
<path fill="whitesmoke" stroke="black" d="M416.25,-132.5C416.25,-132.5 335.75,-132.5 335.75,-132.5 329.75,-132.5 323.75,-126.5 323.75,-120.5 323.75,-120.5 323.75,-108.5 323.75,-108.5 323.75,-102.5 329.75,-96.5 335.75,-96.5 335.75,-96.5 416.25,-96.5 416.25,-96.5 422.25,-96.5 428.25,-102.5 428.25,-108.5 428.25,-108.5 428.25,-120.5 428.25,-120.5 428.25,-126.5 422.25,-132.5 416.25,-132.5"/>
<text xml:space="preserve" text-anchor="middle" x="376" y="-110.62" font-family="Helvetica,sans-Serif" font-size="10.00">download_emails.py</text>
</g>
<!-- download&#45;&gt;db -->
<g id="edge4" class="edge">
<title>download&#45;&gt;db</title>
<path fill="none" stroke="red" stroke-width="2" d="M323.39,-98.92C304.71,-93.22 283.68,-86.2 265,-78.5 250.2,-72.41 247.85,-67.96 233,-62 209.63,-52.63 200.91,-52.34 174.19,-44.55"/>
<polygon fill="red" stroke="red" stroke-width="2" points="176.95,-41.73 166.37,-42.19 174.93,-48.43 176.95,-41.73"/>
<text xml:space="preserve" text-anchor="middle" x="281.5" y="-65.2" font-family="Times,serif" font-size="14.00">writes</text>
</g>
<!-- download&#45;&gt;converter -->
<g id="edge1" class="edge">
<title>download&#45;&gt;converter</title>
<path fill="none" stroke="blue" d="M350.36,-96.05C329.75,-82.03 300.6,-62.19 277.87,-46.73"/>
<polygon fill="blue" stroke="blue" points="280.05,-43.98 269.82,-41.25 276.11,-49.77 280.05,-43.98"/>
<text xml:space="preserve" text-anchor="middle" x="342.41" y="-65.2" font-family="Times,serif" font-size="14.00">imports</text>
</g>
<!-- download&#45;&gt;credentials -->
<g id="edge2" class="edge">
<title>download&#45;&gt;credentials</title>
<path fill="none" stroke="orange" d="M376,-96.05C376,-83.53 376,-66.37 376,-51.83"/>
<polygon fill="orange" stroke="orange" points="379.5,-51.91 376,-41.91 372.5,-51.91 379.5,-51.91"/>
<text xml:space="preserve" text-anchor="middle" x="387.62" y="-65.2" font-family="Times,serif" font-size="14.00">uses</text>
</g>
<!-- download&#45;&gt;token -->
<g id="edge3" class="edge">
<title>download&#45;&gt;token</title>
<path fill="none" stroke="orange" d="M397.21,-96.05C414.27,-82.01 438.41,-62.15 457.22,-46.68"/>
<polygon fill="orange" stroke="orange" points="459.3,-49.5 464.8,-40.44 454.85,-44.09 459.3,-49.5"/>
<text xml:space="preserve" text-anchor="middle" x="449.21" y="-65.2" font-family="Times,serif" font-size="14.00">uses</text>
</g>
<!-- batch_convert -->
<g id="node11" class="node">
<title>batch_convert</title>
<path fill="whitesmoke" stroke="black" d="M237.75,-132.5C237.75,-132.5 118.25,-132.5 118.25,-132.5 112.25,-132.5 106.25,-126.5 106.25,-120.5 106.25,-120.5 106.25,-108.5 106.25,-108.5 106.25,-102.5 112.25,-96.5 118.25,-96.5 118.25,-96.5 237.75,-96.5 237.75,-96.5 243.75,-96.5 249.75,-102.5 249.75,-108.5 249.75,-108.5 249.75,-120.5 249.75,-120.5 249.75,-126.5 243.75,-132.5 237.75,-132.5"/>
<text xml:space="preserve" text-anchor="middle" x="178" y="-110.62" font-family="Helvetica,sans-Serif" font-size="10.00">batch_database_converter.py</text>
</g>
<!-- batch_convert&#45;&gt;db -->
<g id="edge6" class="edge">
<title>batch_convert&#45;&gt;db</title>
<path fill="none" stroke="red" d="M155.96,-96.17C149.97,-90.87 143.77,-84.78 138.75,-78.5 132.9,-71.18 127.54,-62.59 122.99,-54.39"/>
<polygon fill="red" stroke="red" points="126.16,-52.89 118.4,-45.68 119.97,-56.15 126.16,-52.89"/>
<text xml:space="preserve" text-anchor="middle" x="159.38" y="-65.2" font-family="Times,serif" font-size="14.00">updates</text>
</g>
<!-- batch_convert&#45;&gt;converter -->
<g id="edge5" class="edge">
<title>batch_convert&#45;&gt;converter</title>
<path fill="none" stroke="blue" d="M179.45,-96.09C181.01,-85.51 184.26,-72.13 191,-62 194.48,-56.77 198.9,-51.98 203.69,-47.67"/>
<polygon fill="blue" stroke="blue" points="205.85,-50.43 211.41,-41.42 201.44,-44.99 205.85,-50.43"/>
<text xml:space="preserve" text-anchor="middle" x="212" y="-65.2" font-family="Times,serif" font-size="14.00">imports</text>
</g>
<!-- daily_share -->
<g id="node12" class="node">
<title>daily_share</title>
<path fill="whitesmoke" stroke="black" d="M630.88,-132.5C630.88,-132.5 557.12,-132.5 557.12,-132.5 551.12,-132.5 545.12,-126.5 545.12,-120.5 545.12,-120.5 545.12,-108.5 545.12,-108.5 545.12,-102.5 551.12,-96.5 557.12,-96.5 557.12,-96.5 630.88,-96.5 630.88,-96.5 636.88,-96.5 642.88,-102.5 642.88,-108.5 642.88,-108.5 642.88,-120.5 642.88,-120.5 642.88,-126.5 636.88,-132.5 630.88,-132.5"/>
<text xml:space="preserve" text-anchor="middle" x="594" y="-110.62" font-family="Helvetica,sans-Serif" font-size="10.00">run_daily_share.py</text>
</g>
<!-- daily_share&#45;&gt;cookies -->
<g id="edge7" class="edge">
<title>daily_share&#45;&gt;cookies</title>
<path fill="none" stroke="orange" d="M631.04,-96.15C640.78,-90.98 651.06,-84.95 660,-78.5 672.18,-69.7 684.39,-58.47 694.44,-48.42"/>
<polygon fill="orange" stroke="orange" points="696.8,-51.01 701.27,-41.41 691.79,-46.13 696.8,-51.01"/>
<text xml:space="preserve" text-anchor="middle" x="690.43" y="-65.2" font-family="Times,serif" font-size="14.00">uses</text>
</g>
<!-- daily_share&#45;&gt;all_calls -->
<g id="edge8" class="edge">
<title>daily_share&#45;&gt;all_calls</title>
<path fill="none" stroke="green" d="M594,-96.05C594,-83.53 594,-66.37 594,-51.83"/>
<polygon fill="green" stroke="green" points="597.5,-51.91 594,-41.91 590.5,-51.91 597.5,-51.91"/>
<text xml:space="preserve" text-anchor="middle" x="626.62" y="-65.2" font-family="Times,serif" font-size="14.00">reads/writes</text>
</g>
<!-- batch_analyze -->
<g id="node13" class="node">
<title>batch_analyze</title>
<path fill="whitesmoke" stroke="black" d="M892,-221C892,-221 798,-221 798,-221 792,-221 786,-215 786,-209 786,-209 786,-197 786,-197 786,-191 792,-185 798,-185 798,-185 892,-185 892,-185 898,-185 904,-191 904,-197 904,-197 904,-209 904,-209 904,-215 898,-221 892,-221"/>
<text xml:space="preserve" text-anchor="middle" x="845" y="-199.12" font-family="Helvetica,sans-Serif" font-size="10.00">batch_analyze_calls.py</text>
</g>
<!-- batch_analyze&#45;&gt;era_connections -->
<g id="edge10" class="edge">
<title>batch_analyze&#45;&gt;era_connections</title>
<path fill="none" stroke="green" d="M845,-184.91C845,-173.26 845,-157.55 845,-144.02"/>
<polygon fill="green" stroke="green" points="848.5,-144.36 845,-134.36 841.5,-144.36 848.5,-144.36"/>
<text xml:space="preserve" text-anchor="middle" x="859.25" y="-153.7" font-family="Times,serif" font-size="14.00">reads</text>
</g>
<!-- batch_analyze&#45;&gt;analysis_results -->
<g id="edge11" class="edge">
<title>batch_analyze&#45;&gt;analysis_results</title>
<path fill="none" stroke="green" d="M869,-184.7C886.98,-171.74 911.82,-153.84 931.72,-139.49"/>
<polygon fill="green" stroke="green" points="933.75,-142.34 939.82,-133.65 929.66,-136.66 933.75,-142.34"/>
<text xml:space="preserve" text-anchor="middle" x="932.25" y="-153.7" font-family="Times,serif" font-size="14.00">writes</text>
</g>
<!-- ask_fathom -->
<g id="node14" class="node">
<title>ask_fathom</title>
<path fill="whitesmoke" stroke="black" d="M762.62,-132.5C762.62,-132.5 693.38,-132.5 693.38,-132.5 687.38,-132.5 681.38,-126.5 681.38,-120.5 681.38,-120.5 681.38,-108.5 681.38,-108.5 681.38,-102.5 687.38,-96.5 693.38,-96.5 693.38,-96.5 762.62,-96.5 762.62,-96.5 768.62,-96.5 774.62,-102.5 774.62,-108.5 774.62,-108.5 774.62,-120.5 774.62,-120.5 774.62,-126.5 768.62,-132.5 762.62,-132.5"/>
<text xml:space="preserve" text-anchor="middle" x="728" y="-110.62" font-family="Helvetica,sans-Serif" font-size="10.00">ask_fathom_ai.py</text>
</g>
<!-- batch_analyze&#45;&gt;ask_fathom -->
<g id="edge9" class="edge">
<title>batch_analyze&#45;&gt;ask_fathom</title>
<path fill="none" stroke="purple" d="M821.6,-184.7C804.07,-171.74 779.85,-153.84 760.45,-139.49"/>
<polygon fill="purple" stroke="purple" points="762.69,-136.8 752.57,-133.67 758.53,-142.43 762.69,-136.8"/>
<text xml:space="preserve" text-anchor="middle" x="809.35" y="-153.7" font-family="Times,serif" font-size="14.00">calls</text>
</g>
<!-- ask_fathom&#45;&gt;cookies -->
<g id="edge12" class="edge">
<title>ask_fathom&#45;&gt;cookies</title>
<path fill="none" stroke="orange" d="M726.07,-96.05C724.69,-83.53 722.79,-66.37 721.19,-51.83"/>
<polygon fill="orange" stroke="orange" points="724.67,-51.46 720.09,-41.9 717.71,-52.22 724.67,-51.46"/>
<text xml:space="preserve" text-anchor="middle" x="735.52" y="-65.2" font-family="Times,serif" font-size="14.00">uses</text>
</g>
<!-- run_all -->
<g id="node15" class="node">
<title>run_all</title>
<polygon fill="orange" stroke="black" points="467,-221 414.7,-203 467,-185 519.3,-203 467,-221"/>
<text xml:space="preserve" text-anchor="middle" x="467" y="-199.12" font-family="Helvetica,sans-Serif" font-weight="bold" font-size="10.00">run_all.sh</text>
</g>
<!-- run_all&#45;&gt;download -->
<g id="edge14" class="edge">
<title>run_all&#45;&gt;download</title>
<path fill="none" stroke="red" stroke-width="2" d="M453.57,-189.24C440.18,-176.51 419.26,-156.62 402.51,-140.7"/>
<polygon fill="red" stroke="red" stroke-width="2" points="406.05,-139.24 396.39,-134.89 401.23,-144.31 406.05,-139.24"/>
<text xml:space="preserve" text-anchor="middle" x="452.9" y="-153.7" font-family="Times,serif" font-size="14.00">executes</text>
</g>
<!-- run_all&#45;&gt;daily_share -->
<g id="edge13" class="edge">
<title>run_all&#45;&gt;daily_share</title>
<path fill="none" stroke="red" stroke-width="2" d="M483.86,-190.51C503.05,-177.45 534.88,-155.77 559.4,-139.07"/>
<polygon fill="red" stroke="red" stroke-width="2" points="559.94,-142.94 566.23,-134.41 555.99,-137.15 559.94,-142.94"/>
<text xml:space="preserve" text-anchor="middle" x="565.13" y="-153.7" font-family="Times,serif" font-size="14.00">executes</text>
</g>
</g>
</svg>
